<?xml version="1.0" encoding="UTF-8" standalone="no"?>
<svg
   xmlns:dc="http://purl.org/dc/elements/1.1/"
   xmlns:cc="http://creativecommons.org/ns#"
   xmlns:rdf="http://www.w3.org/1999/02/22-rdf-syntax-ns#"
   xmlns:svg="http://www.w3.org/2000/svg"
   xmlns="http://www.w3.org/2000/svg"
   xmlns:sodipodi="http://sodipodi.sourceforge.net/DTD/sodipodi-0.dtd"
   xmlns:inkscape="http://www.inkscape.org/namespaces/inkscape"
   width="71.890297mm"
   height="71.876045mm"
   viewBox="0 0 71.890297 71.876045"
   version="1.1"
   id="svg8"
   inkscape:version="1.0.2 (e86c8708, 2021-01-15)"
   sodipodi:docname="degree_seal.svg">
  <defs
     id="defs2" />
  <sodipodi:namedview
     id="base"
     pagecolor="#ffffff"
     bordercolor="#666666"
     borderopacity="1.0"
     inkscape:pageopacity="0.0"
     inkscape:pageshadow="2"
     inkscape:zoom="1.1022216"
     inkscape:cx="105.81805"
     inkscape:cy="111.68707"
     inkscape:document-units="mm"
     inkscape:current-layer="layer1"
     inkscape:document-rotation="0"
     showgrid="false"
     showguides="true"
     inkscape:guide-bbox="true"
     inkscape:object-nodes="true"
     inkscape:snap-midpoints="false"
     inkscape:object-paths="false"
     inkscape:snap-object-midpoints="true"
     inkscape:snap-intersection-paths="true"
     inkscape:snap-others="true"
     inkscape:window-width="1252"
     inkscape:window-height="755"
     inkscape:window-x="0"
     inkscape:window-y="23"
     inkscape:window-maximized="0"
     fit-margin-top="0"
     fit-margin-left="0"
     fit-margin-right="0"
     fit-margin-bottom="0">
    <sodipodi:guide
       position="35.918623,62.068583"
       orientation="1,0"
       id="guide837" />
    <sodipodi:guide
       position="20.375979,23.424554"
       orientation="0,-1"
       id="guide841" />
    <sodipodi:guide
       position="18.581326,67.518463"
       orientation="1,0"
       id="guide845" />
    <sodipodi:guide
       position="53.255279,67.515983"
       orientation="1,0"
       id="guide847" />
  </sodipodi:namedview>
  <metadata
     id="metadata5">
    <rdf:RDF>
      <cc:Work
         rdf:about="">
        <dc:format>image/svg+xml</dc:format>
        <dc:type
           rdf:resource="http://purl.org/dc/dcmitype/StillImage" />
        <dc:title></dc:title>
      </cc:Work>
    </rdf:RDF>
  </metadata>
  <g
     inkscape:label="Layer 1"
     inkscape:groupmode="layer"
     id="layer1"
     transform="translate(-33.666791,-85.9717)">
    <path
       sodipodi:type="star"
       style="fill:#000000;stroke:none;stroke-width:1.32292;stroke-linecap:square;stroke-linejoin:round"
       id="path833"
       sodipodi:sides="35"
       sodipodi:cx="71.112663"
       sodipodi:cy="115.62292"
       sodipodi:r1="35.987225"
       sodipodi:r2="34.187862"
       sodipodi:arg1="1.2722974"
       sodipodi:arg2="1.3620572"
       inkscape:flatsided="false"
       inkscape:rounded="0"
       inkscape:randomized="0"
       d="m 81.695997,150.01875 -3.498701,-0.95009 -2.812991,2.28706 -3.27283,-1.55953 -3.176156,1.74802 -2.941768,-2.11886 -3.437236,1.15281 -2.516156,-2.61008 -3.587841,0.52054 -2.009671,-3.01741 -3.623129,-0.12846 -1.438595,-3.32776 -3.541967,-0.77333 -0.821281,-3.53116 -3.346964,-1.39334 -0.17757,-3.62105 -3.044386,-1.96858 0.471848,-3.59457 -2.643959,-2.48053 1.1061,-3.45255 -2.158552,-2.91277 1.704801,-3.19956 -1.603769,-3.25139 2.248709,-2.84374 -0.997439,-3.4855 2.720341,-2.39652 -0.35905,-3.60758 3.10454,-1.872272 0.290878,-3.613718 3.388956,-1.287847 0.931457,-3.503705 3.564448,-0.662029 1.5421,-3.281082 3.625375,-0.01493 2.103178,-2.953001 3.56978,0.632643 2.596657,-2.530008 3.39945,1.259885 3.006678,-2.025699 3.119859,1.846633 3.320061,-1.456282 2.739993,2.374029 3.526736,-0.840058 2.27206,2.825122 3.620058,-0.196836 1.731102,3.185413 3.597029,0.452714 1.134505,3.443322 3.458388,1.087714 0.501444,3.59056 3.208593,1.687752 -0.14773,3.622393 2.85566,2.23355 -0.79216,3.5378 2.41096,2.70755 -1.41113,3.3395 1.88877,3.09454 -1.98475,3.03386 1.30586,3.38206 -2.49457,2.63072 0.68099,3.56088 -2.92421,2.14302 0.0342,3.62524 -3.25987,1.58645 -0.613639,3.5731 -3.490754,0.97887 -1.241778,3.40611 -3.609442,0.33985 -1.830006,3.12964 -3.612119,-0.3101 z"
       inkscape:transform-center-x="0.18683116"
       inkscape:transform-center-y="-0.08178237"
       transform="rotate(38.706826,61.460074,116.56691)"
       inkscape:export-xdpi="96.199997"
       inkscape:export-ydpi="96.199997" />
    <path
       sodipodi:type="star"
       style="fill:#ffffff;stroke:none;stroke-width:1.32292;stroke-linecap:square;stroke-linejoin:round"
       id="path835"
       sodipodi:sides="5"
       sodipodi:cx="69.585419"
       sodipodi:cy="141.82722"
       sodipodi:r1="6.2443905"
       sodipodi:r2="3.0225098"
       sodipodi:arg1="0.93576954"
       sodipodi:arg2="1.564088"
       inkscape:flatsided="false"
       inkscape:rounded="0"
       inkscape:randomized="0"
       d="m 73.289585,146.85431 -3.68389,-2.00464 -3.656666,2.05388 0.768142,-4.12306 -3.083331,-2.84301 4.158628,-0.54354 1.751062,-3.81097 1.802032,3.78713 4.165547,0.48771 -3.044912,2.88412 z"
       inkscape:transform-center-x="0.010589391"
       inkscape:transform-center-y="-0.013258225"
       inkscape:export-xdpi="96.199997"
       inkscape:export-ydpi="96.199997" />
    <path
       sodipodi:type="star"
       style="fill:#ffffff;stroke:none;stroke-width:1.32292;stroke-linecap:square;stroke-linejoin:round"
       id="path839"
       sodipodi:sides="5"
       sodipodi:cx="52.248119"
       sodipodi:cy="134.42319"
       sodipodi:r1="6.2443905"
       sodipodi:r2="3.0225098"
       sodipodi:arg1="0.93576954"
       sodipodi:arg2="1.564088"
       inkscape:flatsided="false"
       inkscape:rounded="0"
       inkscape:randomized="0"
       d="m 55.952286,139.45027 -3.683891,-2.00464 -3.656665,2.05388 0.768142,-4.12305 -3.083332,-2.84301 4.158629,-0.54355 1.751062,-3.81096 1.802032,3.78712 4.165547,0.48771 -3.044912,2.88412 z"
       inkscape:transform-center-x="0.010589391"
       inkscape:transform-center-y="-0.013258225"
       inkscape:export-xdpi="96.199997"
       inkscape:export-ydpi="96.199997" />
    <path
       sodipodi:type="star"
       style="fill:#ffffff;stroke:none;stroke-width:1.32292;stroke-linecap:square;stroke-linejoin:round"
       id="path843"
       sodipodi:sides="5"
       sodipodi:cx="86.922073"
       sodipodi:cy="134.42319"
       sodipodi:r1="6.2443905"
       sodipodi:r2="3.0225098"
       sodipodi:arg1="0.93576954"
       sodipodi:arg2="1.564088"
       inkscape:flatsided="false"
       inkscape:rounded="0"
       inkscape:randomized="0"
       d="m 90.62624,139.45027 -3.683891,-2.00464 -3.656665,2.05388 0.768142,-4.12305 -3.083332,-2.84301 4.158629,-0.54355 1.751062,-3.81096 1.802032,3.78712 4.165547,0.48771 -3.044912,2.88412 z"
       inkscape:transform-center-x="0.010589391"
       inkscape:transform-center-y="-0.013258225"
       inkscape:export-xdpi="96.199997"
       inkscape:export-ydpi="96.199997" />
  </g>
</svg>
