<?xml version="1.0" encoding="UTF-8" standalone="no"?>
<svg
   xmlns:dc="http://purl.org/dc/elements/1.1/"
   xmlns:cc="http://creativecommons.org/ns#"
   xmlns:rdf="http://www.w3.org/1999/02/22-rdf-syntax-ns#"
   xmlns:svg="http://www.w3.org/2000/svg"
   xmlns="http://www.w3.org/2000/svg"
   xmlns:sodipodi="http://sodipodi.sourceforge.net/DTD/sodipodi-0.dtd"
   xmlns:inkscape="http://www.inkscape.org/namespaces/inkscape"
   width="188.15825mm"
   height="188.15825mm"
   viewBox="0 0 188.15826 188.15826"
   version="1.1"
   id="svg8"
   inkscape:version="1.0.2 (e86c8708, 2021-01-15)"
   sodipodi:docname="log_pablo_garin_dev.svg">
  <defs
     id="defs2">
    <filter
       inkscape:collect="always"
       style="color-interpolation-filters:sRGB"
       id="filter919"
       x="-0.071661346"
       width="1.1433227"
       y="-0.071662232"
       height="1.1433245">
      <feGaussianBlur
         inkscape:collect="always"
         stdDeviation="18.960574"
         id="feGaussianBlur921" />
    </filter>
  </defs>
  <sodipodi:namedview
     id="base"
     pagecolor="#ffffff"
     bordercolor="#666666"
     borderopacity="1.0"
     inkscape:pageopacity="0.0"
     inkscape:pageshadow="2"
     inkscape:zoom="0.18659469"
     inkscape:cx="189.15431"
     inkscape:cy="578.45145"
     inkscape:document-units="px"
     inkscape:current-layer="layer1"
     inkscape:document-rotation="0"
     showgrid="false"
     showborder="false"
     showguides="true"
     inkscape:guide-bbox="true"
     inkscape:window-width="1252"
     inkscape:window-height="755"
     inkscape:window-x="0"
     inkscape:window-y="23"
     inkscape:window-maximized="0"
     fit-margin-top="0"
     fit-margin-left="0"
     fit-margin-right="0"
     fit-margin-bottom="0">
    <sodipodi:guide
       position="-471.57001,14.704099"
       orientation="0,-1"
       id="guide962" />
  </sodipodi:namedview>
  <metadata
     id="metadata5">
    <rdf:RDF>
      <cc:Work
         rdf:about="">
        <dc:format>image/svg+xml</dc:format>
        <dc:type
           rdf:resource="http://purl.org/dc/dcmitype/StillImage" />
        <dc:title></dc:title>
      </cc:Work>
    </rdf:RDF>
  </metadata>
  <g
     inkscape:label="Layer 1"
     inkscape:groupmode="layer"
     id="layer1"
     transform="translate(-600.8939,-49.990104)">
    <circle
       style="mix-blend-mode:normal;fill:#ffffff;stroke:#ffffff;stroke-width:10.5833;stroke-linecap:round;stroke-linejoin:round;stroke-miterlimit:4;stroke-dasharray:none;stroke-dashoffset:0"
       id="path964"
       cx="694.97302"
       cy="144.06923"
       r="88.787476" />
    <path
       id="path947"
       style="mix-blend-mode:normal;fill:#008080;stroke:none;stroke-width:10.5833;stroke-linecap:round;stroke-linejoin:round;stroke-miterlimit:4;stroke-dasharray:none;stroke-dashoffset:0"
       d="m 694.97278,64.694244 c -43.83741,-1e-5 -79.37474,35.537596 -79.375,79.375006 -2.9e-4,43.8378 35.53722,79.37502 79.375,79.375 13.93319,8e-5 27.62096,-3.66695 39.6875,-10.63346 v 10.63346 h 39.68493 a 112.22964,112.22964 0 0 0 0.003,-0.003 v -79.37242 h -39.68749 l -28.06341,28.0634 -28.06289,28.06289 -28.06341,-28.0634 28.0629,-28.06289 -28.0634,-28.0634 28.0634,-28.063928 28.0634,28.063928 28.06341,28.0634 32.65794,-32.65744 C 754.48159,82.973785 726.17448,64.694284 694.97331,64.694244 Z" />
    <path
       id="path1934"
       style="fill:#ffffff;fill-opacity:1;stroke:none;stroke-width:9.75513;stroke-linecap:round;stroke-linejoin:round;stroke-miterlimit:4;stroke-dasharray:none;stroke-dashoffset:0"
       d="m 383.09134,64.694652 c -43.83741,-1e-5 -79.37473,35.537088 -79.375,79.374498 -3.1e-4,43.8378 35.5372,79.37553 79.375,79.37551 13.9332,8e-5 27.62095,-3.66746 39.6875,-10.63397 v 10.63397 h 39.68492 a 112.22964,112.22964 0 0 0 0.003,-0.003 v -79.37242 h -39.6875 l 32.65796,-32.65743 C 442.60006,82.973792 414.29295,64.694272 383.09176,64.694232 Z" />
    <path
       id="path912"
       style="color:#000000;font-style:normal;font-variant:normal;font-weight:normal;font-stretch:normal;font-size:medium;line-height:normal;font-family:sans-serif;font-variant-ligatures:normal;font-variant-position:normal;font-variant-caps:normal;font-variant-numeric:normal;font-variant-alternates:normal;font-variant-east-asian:normal;font-feature-settings:normal;font-variation-settings:normal;text-indent:0;text-align:start;text-decoration:none;text-decoration-line:none;text-decoration-style:solid;text-decoration-color:#000000;letter-spacing:normal;word-spacing:normal;text-transform:none;writing-mode:lr-tb;direction:ltr;text-orientation:mixed;dominant-baseline:auto;baseline-shift:baseline;text-anchor:start;white-space:normal;shape-padding:0;shape-margin:0;inline-size:0;clip-rule:nonzero;display:inline;overflow:visible;visibility:visible;isolation:auto;mix-blend-mode:normal;color-interpolation:sRGB;color-interpolation-filters:linearRGB;solid-color:#000000;solid-opacity:1;vector-effect:none;fill:#008080;fill-opacity:1;fill-rule:nonzero;stroke:none;stroke-width:0.318614;stroke-linecap:butt;stroke-linejoin:miter;stroke-miterlimit:4;stroke-dasharray:none;stroke-dashoffset:0;stroke-opacity:1;color-rendering:auto;image-rendering:auto;shape-rendering:auto;text-rendering:auto;enable-background:accumulate;stop-color:#000000"
       d="m 89.654896,31.843123 c -29.76692,-8.2e-5 -58.31467,11.824587 -79.36312,32.872929 -21.04844,21.048344 -32.87339,49.596188 -32.87344,79.363118 5e-5,29.76692 11.825,58.31477 32.87344,79.36311 21.04845,21.04835 49.5962,32.87301 79.36312,32.87293 29.766834,-6e-5 58.314784,-11.82511 79.363114,-32.87345 21.04833,-21.04832 32.87288,-49.59576 32.87293,-79.36259 -5e-5,-29.76684 -11.8246,-58.314274 -32.87293,-79.3626 C 147.96968,43.668241 119.42173,31.843179 89.654896,31.843123 Z m -0.0181,32.848124 c 31.201184,4e-5 59.508294,18.279549 72.345454,46.717563 l -32.65795,32.65744 h 39.6875 v 79.375 h -39.6875 v -10.63398 c -12.06656,6.96652 -25.75431,10.63406 -39.687504,10.63398 -43.83781,2e-5 -79.3753,-35.53771 -79.375,-79.37552 2.7e-4,-43.83741 35.53759,-79.374499 79.375,-79.374483 z" />
    <path
       id="path900"
       style="color:#000000;font-style:normal;font-variant:normal;font-weight:normal;font-stretch:normal;font-size:medium;line-height:normal;font-family:sans-serif;font-variant-ligatures:normal;font-variant-position:normal;font-variant-caps:normal;font-variant-numeric:normal;font-variant-alternates:normal;font-variant-east-asian:normal;font-feature-settings:normal;font-variation-settings:normal;text-indent:0;text-align:start;text-decoration:none;text-decoration-line:none;text-decoration-style:solid;text-decoration-color:#000000;letter-spacing:normal;word-spacing:normal;text-transform:none;writing-mode:lr-tb;direction:ltr;text-orientation:mixed;dominant-baseline:auto;baseline-shift:baseline;text-anchor:start;white-space:normal;shape-padding:0;shape-margin:0;inline-size:0;clip-rule:nonzero;display:inline;overflow:visible;visibility:visible;opacity:0.56;isolation:auto;mix-blend-mode:normal;color-interpolation:sRGB;color-interpolation-filters:linearRGB;solid-color:#000000;solid-opacity:1;vector-effect:none;fill:#000000;fill-opacity:1;fill-rule:nonzero;stroke:none;stroke-width:1.20421;stroke-linecap:butt;stroke-linejoin:miter;stroke-miterlimit:4;stroke-dasharray:none;stroke-dashoffset:0;stroke-opacity:1;filter:url(#filter919);color-rendering:auto;image-rendering:auto;shape-rendering:auto;text-rendering:auto;enable-background:accumulate;stop-color:#000000"
       d="m 338.78516,227.01562 c -175.14234,-5e-5 -317.502835,142.35178 -317.50391,317.49415 -0.0012,175.14393 142.35996,317.50398 317.50391,317.5039 45.93449,2.7e-4 90.9759,-10.49 132.49609,-29.5957 v 12.0918 a 17.501751,17.501751 0 0 0 17.50391,17.5039 h 131.43359 c 6.35171,-5.63012 12.55215,-11.4623 18.58789,-17.49805 6.02891,-6.02889 11.85628,-12.22225 17.48047,-18.5664 V 544.50977 A 17.501751,17.501751 0 0 0 638.78516,527.01562 H 531.03125 l 93.55859,-93.55859 a 17.501751,17.501751 0 0 0 3.58008,-19.57617 C 576.8394,300.16892 463.54588,227.01578 338.78516,227.01562 Z m -0.002,17.49805 c 117.92573,1.5e-4 224.91324,69.08808 273.43164,176.57031 l -0.004,0.004 c 9.5e-4,0.002 0.003,0.004 0.004,0.006 L 488.79297,544.51367 H 638.7832 v 0.01 299.99023 a 424.17502,424.17502 0 0 1 -0.0117,0.0117 H 488.78125 v -40.19141 c -45.60586,26.33012 -97.3391,40.19171 -150,40.19141 -165.68617,8e-5 -300.001172,-134.31578 -300,-300.00195 4.8e-5,-7.7705 0.296669,-15.47188 0.876953,-23.09375 0.192929,-2.53539 0.416307,-5.0627 0.671875,-7.58008 4.01e-4,-0.004 0.0016,-0.008 0.002,-0.0117 0.255663,-2.51732 0.541857,-5.02491 0.859375,-7.52344 5.01e-4,-0.004 0.0015,-0.008 0.002,-0.0117 0.317612,-2.49848 0.66624,-4.98789 1.044922,-7.46679 6e-4,-0.004 0.0014,-0.008 0.002,-0.0117 0.758148,-4.96162 1.63861,-9.88323 2.636719,-14.76172 7.95e-4,-0.004 0.0012,-0.008 0.002,-0.0117 0.998294,-4.8784 2.115677,-9.71295 3.347656,-14.50195 9.84e-4,-0.004 9.7e-4,-0.008 0.002,-0.0117 0.615589,-2.39255 1.26085,-4.77352 1.933593,-7.14258 C 85.875544,336.62982 201.57146,244.51362 338.7832,244.51367 Z"
       transform="matrix(0.26458333,0,0,0.26458333,4.0923344e-4,-0.00299559)" />
    <path
       id="path931"
       style="fill:#ffffff;stroke:none;stroke-width:9.75513;stroke-linecap:round;stroke-linejoin:round;stroke-miterlimit:4;stroke-dasharray:none;stroke-dashoffset:0"
       d="m 89.636383,64.694242 c -43.83741,-1e-5 -79.37473,35.537088 -79.375,79.374498 -3.1e-4,43.8378 35.5372,79.37553 79.375,79.37551 13.933197,8e-5 27.620947,-3.66746 39.687497,-10.63397 v 10.63397 h 39.68492 a 112.22964,112.22964 0 0 0 0.003,-0.003 V 144.06883 H 129.3243 L 161.98226,111.4114 C 149.1451,82.973382 120.83799,64.693862 89.636803,64.693822 Z" />
    <path
       id="path896"
       style="fill:#000080;stroke-width:0.253166"
       d="m 73.197726,87.938919 -28.063404,28.063921 28.063404,28.06341 -28.062885,28.06288 28.063401,28.0634 28.062898,-28.06288 28.0634,-28.0634 -28.0634,-28.06341 z" />
    <path
       id="path949"
       style="fill:#071a52;fill-opacity:1;stroke-width:0.253166"
       d="m 366.65311,87.938919 -28.06341,28.063921 28.06341,28.06341 -28.06289,28.06288 28.0634,28.0634 28.0629,-28.06288 28.0634,-28.0634 -28.0634,-28.06341 z" />
    <path
       id="path943"
       style="color:#000000;font-style:normal;font-variant:normal;font-weight:normal;font-stretch:normal;font-size:medium;line-height:normal;font-family:sans-serif;font-variant-ligatures:normal;font-variant-position:normal;font-variant-caps:normal;font-variant-numeric:normal;font-variant-alternates:normal;font-variant-east-asian:normal;font-feature-settings:normal;font-variation-settings:normal;text-indent:0;text-align:start;text-decoration:none;text-decoration-line:none;text-decoration-style:solid;text-decoration-color:#000000;letter-spacing:normal;word-spacing:normal;text-transform:none;writing-mode:lr-tb;direction:ltr;text-orientation:mixed;dominant-baseline:auto;baseline-shift:baseline;text-anchor:start;white-space:normal;shape-padding:0;shape-margin:0;inline-size:0;clip-rule:nonzero;display:inline;overflow:visible;visibility:visible;isolation:auto;mix-blend-mode:normal;color-interpolation:sRGB;color-interpolation-filters:linearRGB;solid-color:#000000;solid-opacity:1;vector-effect:none;fill:#008080;fill-opacity:1;fill-rule:nonzero;stroke:none;stroke-width:0.318614;stroke-linecap:butt;stroke-linejoin:miter;stroke-miterlimit:4;stroke-dasharray:none;stroke-dashoffset:0;stroke-opacity:1;color-rendering:auto;image-rendering:auto;shape-rendering:auto;text-rendering:auto;enable-background:accumulate;stop-color:#000000"
       d="m 383.10986,31.846118 c -29.76692,-8.2e-5 -58.31467,11.824587 -79.36312,32.872929 -21.04844,21.048344 -32.87339,49.596183 -32.87344,79.363113 5e-5,29.76692 11.825,58.31477 32.87344,79.36311 21.04845,21.04835 49.5962,32.87301 79.36312,32.87293 29.76683,-6e-5 58.31478,-11.82511 79.36311,-32.87345 21.04833,-21.04832 32.87288,-49.59576 32.87293,-79.36259 -5e-5,-29.76684 -11.8246,-58.314269 -32.87293,-79.362595 C 441.42464,43.671236 412.87669,31.846174 383.10986,31.846118 Z m -0.0181,32.848124 c 31.20118,4e-5 59.50829,18.279549 72.34545,46.717558 l -32.65795,32.65744 h 39.6875 v 79.375 h -39.6875 v -10.63398 c -12.06656,6.96652 -25.75431,10.63406 -39.6875,10.63398 -43.83781,2e-5 -79.3753,-35.53771 -79.375,-79.37552 2.7e-4,-43.83741 35.53759,-79.374494 79.375,-79.374478 z" />
    <path
       id="path2062"
       style="fill:#008080;fill-opacity:1;stroke:none;stroke-width:9.75513;stroke-linecap:round;stroke-linejoin:round;stroke-miterlimit:4;stroke-dasharray:none;stroke-dashoffset:0"
       d="m 984.30533,64.694242 c -43.83741,-1e-5 -79.37473,35.537078 -79.375,79.374488 -3.1e-4,43.8378 35.5372,79.37553 79.375,79.37551 13.9332,8e-5 27.62097,-3.66746 39.68747,-10.63397 v 10.63397 h 39.685 a 112.22964,112.22964 0 0 0 0,-0.003 v -79.37242 h -39.6875 l 32.6579,-32.65743 C 1043.8141,82.973382 1015.5069,64.693862 984.30575,64.693822 Z" />
    <path
       id="path2064"
       style="fill:#ffffff;fill-opacity:1;stroke-width:0.253166"
       d="m 967.8671,87.938509 -28.06341,28.063911 28.06341,28.06341 -28.06289,28.06288 28.0634,28.0634 28.0629,-28.06288 28.06339,-28.0634 -28.06339,-28.06341 z" />
    <path
       id="path2066"
       style="color:#000000;font-style:normal;font-variant:normal;font-weight:normal;font-stretch:normal;font-size:medium;line-height:normal;font-family:sans-serif;font-variant-ligatures:normal;font-variant-position:normal;font-variant-caps:normal;font-variant-numeric:normal;font-variant-alternates:normal;font-variant-east-asian:normal;font-feature-settings:normal;font-variation-settings:normal;text-indent:0;text-align:start;text-decoration:none;text-decoration-line:none;text-decoration-style:solid;text-decoration-color:#000000;letter-spacing:normal;word-spacing:normal;text-transform:none;writing-mode:lr-tb;direction:ltr;text-orientation:mixed;dominant-baseline:auto;baseline-shift:baseline;text-anchor:start;white-space:normal;shape-padding:0;shape-margin:0;inline-size:0;clip-rule:nonzero;display:inline;overflow:visible;visibility:visible;isolation:auto;mix-blend-mode:normal;color-interpolation:sRGB;color-interpolation-filters:linearRGB;solid-color:#000000;solid-opacity:1;vector-effect:none;fill:#ffffff;fill-opacity:1;fill-rule:nonzero;stroke:none;stroke-width:0.318614;stroke-linecap:butt;stroke-linejoin:miter;stroke-miterlimit:4;stroke-dasharray:none;stroke-dashoffset:0;stroke-opacity:1;color-rendering:auto;image-rendering:auto;shape-rendering:auto;text-rendering:auto;enable-background:accumulate;stop-color:#000000"
       d="m 984.32385,31.845708 c -29.76692,-8.2e-5 -58.31467,11.824587 -79.36312,32.872929 -21.04844,21.048344 -32.87339,49.596173 -32.87344,79.363103 5e-5,29.76692 11.825,58.31477 32.87344,79.36311 21.04845,21.04835 49.5962,32.87301 79.36312,32.87293 29.76685,-6e-5 58.31475,-11.82511 79.36315,-32.87345 21.0483,-21.04832 32.8729,-49.59576 32.8729,-79.36259 0,-29.76684 -11.8246,-58.314259 -32.8729,-79.362585 -21.0484,-21.048329 -49.5963,-32.873391 -79.36315,-32.873447 z m -0.0181,32.848124 c 31.20115,4e-5 59.50835,18.279549 72.34545,46.717548 l -32.6579,32.65744 h 39.6875 v 79.375 h -39.6875 v -10.63398 c -12.0666,6.96652 -25.75436,10.63406 -39.68755,10.63398 -43.83781,2e-5 -79.3753,-35.53771 -79.375,-79.37552 2.7e-4,-43.83741 35.53759,-79.374484 79.375,-79.374468 z" />
  </g>
</svg>
